<?xml version="1.0" encoding="utf-8"?>
<!-- Generator: Adobe Illustrator 16.0.3, SVG Export Plug-In . SVG Version: 6.00 Build 0)  -->
<!DOCTYPE svg PUBLIC "-//W3C//DTD SVG 1.1//EN" "http://www.w3.org/Graphics/SVG/1.1/DTD/svg11.dtd">
<svg version="1.1" id="Layer_1" xmlns="http://www.w3.org/2000/svg" xmlns:xlink="http://www.w3.org/1999/xlink" x="0px" y="0px"
	 width="172.667px" height="150px" viewBox="-182.861 -325 172.667 150" enable-background="new -182.861 -325 172.667 150"
	 xml:space="preserve">
<path fill="none" stroke="#A5228D" stroke-width="1.972" d="M-72.946-213.254c-16.26-0.141-29.334-13.445-29.192-29.709
	c0.128-14.74,11.067-26.856,25.22-28.892c1.465-0.211,2.963-0.314,4.487-0.301s3.022,0.143,4.481,0.378
	c14.117,2.283,24.844,14.589,24.715,29.328C-43.377-226.185-56.681-213.112-72.946-213.254z M-41.412-285.675l-8.324-0.073
	l-2.433-2.465l-8.418-8.557l-27.187-0.238l-9.902,9.722l-1.136,1.11l-23.026-0.201l0.049-5.682l-20.869-0.183l-0.051,5.683
	l-7.977-0.07c-6.035-0.052-10.971,4.798-11.023,10.833l-0.548,62.832c-0.053,6.037,4.797,10.971,10.831,11.024l109.273,0.953
	c6.035,0.053,10.971-4.797,11.022-10.833l0.55-62.833C-30.528-280.686-35.376-285.623-41.412-285.675z M-73.128-223.302
	c-10.638-0.093-19.188-8.793-19.096-19.42c0.092-10.628,8.794-19.175,19.432-19.082c10.632,0.093,19.173,8.79,19.08,19.418
	C-53.804-231.758-62.496-223.209-73.128-223.302z M-67.949-271.777c-1.459-0.235-2.957-0.364-4.481-0.378s-3.022,0.09-4.487,0.301
	c-14.152,2.036-25.092,14.153-25.22,28.892c-0.142,16.264,12.933,29.568,29.192,29.709c16.265,0.142,29.568-12.931,29.711-29.195
	C-43.106-257.187-53.833-269.493-67.949-271.777z M-76.918-271.854c-14.152,2.035-25.092,14.151-25.22,28.892
	C-102.01-257.701-91.071-269.818-76.918-271.854z"/>
</svg>
