<?xml version="1.0" encoding="utf-8"?>
<!-- Generator: Adobe Illustrator 16.0.3, SVG Export Plug-In . SVG Version: 6.00 Build 0)  -->
<!DOCTYPE svg PUBLIC "-//W3C//DTD SVG 1.1//EN" "http://www.w3.org/Graphics/SVG/1.1/DTD/svg11.dtd">
<svg version="1.1" id="Layer_1" xmlns="http://www.w3.org/2000/svg" xmlns:xlink="http://www.w3.org/1999/xlink" x="0px" y="0px"
	 width="172.667px" height="150px" viewBox="310.473 -325 172.667 150" enable-background="new 310.473 -325 172.667 150"
	 xml:space="preserve">
<path fill="none" stroke="#A5228D" stroke-width="1.972" d="M442.891-221.962v-57.74h-91.953 M350.938-279.702h91.953v57.74
	 M449.625-221.962v-64.188h-98.688 M350.938-286.15h98.688v64.188 M456.362-221.962v-70.637H350.938 M463.098-299.048h-112.16v6.449
	h105.424v70.637h6.736V-299.048z M442.891-215.514v-6.448 M350.938-279.702h-6.736 M350.938-286.15h-6.736 M344.201-279.702h6.736
	 M442.891-221.962v6.448 M449.625-215.514v-6.448 M350.938-292.599h-6.736v6.448h6.736 M449.625-221.962v6.448h6.736v-6.448
	 M344.201-279.702h-6.734 M442.891-209.064v-6.449 M442.891-215.514v6.449h6.734v-6.449 M344.201-286.15h-6.734v6.448h6.734
	 M337.467-279.702h-6.734v77.086h112.158v-6.448"/>
</svg>
